<svg width="73" height="25" viewBox="0 0 73 25" fill="none" xmlns="http://www.w3.org/2000/svg">
<g clip-path="url(#clip0_99_118)">
<path opacity="0.987" fill-rule="evenodd" clip-rule="evenodd" d="M64.3176 0C64.8625 0 65.4075 0 65.9523 0C67.1447 0.0362245 68.3238 0.194813 69.4901 0.475764C70.2464 0.666897 70.9296 1.00034 71.5395 1.47609C72.1517 2.03741 72.4688 2.73277 72.491 3.56213C72.491 3.66785 72.491 3.77359 72.491 3.87931C72.4359 4.62841 72.2612 5.3522 71.9665 6.05075C71.3124 7.5022 70.4545 8.81562 69.3925 9.99105C69.3693 10.0028 69.3449 10.0069 69.3193 10.0033C69.5979 9.23869 69.7645 8.4498 69.8194 7.63663C69.9195 5.93007 69.3217 4.52718 68.0262 3.42794C67.1769 2.74701 66.2253 2.25092 65.1716 1.93965C63.9602 1.58322 62.724 1.36364 61.4631 1.2809C59.3004 1.14839 57.137 1.13619 54.9731 1.24431C54.9731 1.21178 54.9731 1.17924 54.9731 1.14671C58.0634 0.533732 61.1781 0.151495 64.3176 0Z" fill="white"/>
<path opacity="0.989" fill-rule="evenodd" clip-rule="evenodd" d="M54.9976 2.43984C57.0904 2.41161 59.1643 2.5946 61.2191 2.9888C62.6759 3.26026 64.0586 3.74009 65.3668 4.42829C66.3713 5.00978 67.1642 5.80272 67.7456 6.80712C68.4141 8.12811 68.4385 9.46188 67.8188 10.8084C67.5282 11.4308 67.1703 12.0083 66.7453 12.5407C65.8955 13.5857 64.9479 14.5332 63.9029 15.3831C62.6464 16.3753 61.3411 17.2983 59.987 18.1523C59.9611 18.1491 59.9409 18.1369 59.926 18.1157C61.0586 17.2595 62.063 16.2714 62.9392 15.1513C63.5821 14.3044 64.0295 13.361 64.2811 12.3211C64.5555 10.9281 64.2872 9.65129 63.4759 8.49059C62.8284 7.63136 62.0435 6.92789 61.1215 6.38015C59.571 5.49181 57.9202 4.85746 56.1687 4.47709C53.306 3.85901 50.4107 3.60688 47.4829 3.72075C46.4889 3.75339 45.4967 3.81439 44.5063 3.90373C44.5022 3.87148 44.5102 3.84301 44.5307 3.81834C47.9711 2.96035 51.4601 2.50084 54.9976 2.43984Z" fill="white"/>
<path opacity="0.992" fill-rule="evenodd" clip-rule="evenodd" d="M29.721 9.39331C29.7784 9.43237 29.8313 9.48117 29.8796 9.5397C33.6735 14.5535 37.4675 19.5674 41.2614 24.5812C40.0007 24.5975 38.7403 24.5975 37.4797 24.5812C34.8969 21.1892 32.3187 17.7938 29.7454 14.3949C28.7985 15.6468 27.847 16.8951 26.8908 18.1401C28.0944 18.1482 29.2982 18.1563 30.5018 18.1645C31.2669 19.1541 32.0232 20.1504 32.7708 21.1532C30.0463 21.1736 27.322 21.1858 24.5974 21.1898C23.7354 22.3203 22.8733 23.4507 22.0112 24.5812C20.7506 24.5975 19.4901 24.5975 18.2295 24.5812C22.0572 19.5156 25.8878 14.453 29.721 9.39331Z" fill="white"/>
<path opacity="0.994" fill-rule="evenodd" clip-rule="evenodd" d="M0.418823 10.2473C3.87524 10.2432 7.33166 10.2473 10.788 10.2595C12.1575 10.3847 13.2433 10.9988 14.0452 12.1015C14.8779 13.3826 15.0365 14.7449 14.521 16.1882C16.2609 16.979 17.1799 18.3331 17.278 20.2505C17.2035 22.0474 16.3739 23.3609 14.7894 24.1908C14.3316 24.4008 13.8518 24.5309 13.3499 24.5812C9.03953 24.5934 4.72918 24.5975 0.418823 24.5934C0.418823 23.2678 0.418823 21.9421 0.418823 20.6165C1.41915 20.6165 2.41947 20.6165 3.4198 20.6165C3.4198 20.9418 3.4198 21.2671 3.4198 21.5924C6.67352 21.6043 9.9266 21.5921 13.1791 21.5558C13.8473 21.3823 14.2051 20.9513 14.2526 20.2627C14.2284 19.6939 13.9601 19.2872 13.4475 19.0428C13.3307 18.9912 13.2087 18.9587 13.0815 18.9452C8.86059 18.933 4.63971 18.9289 0.418823 18.933C0.418823 17.9246 0.418823 16.9161 0.418823 15.9076C3.84272 15.9117 7.26659 15.9076 10.6905 15.8954C11.4819 15.6812 11.8438 15.1648 11.7762 14.3462C11.6311 13.7701 11.2692 13.4163 10.6905 13.2848C8.26691 13.2726 5.84337 13.2686 3.4198 13.2726C3.4198 13.5979 3.4198 13.9233 3.4198 14.2486C2.41947 14.2486 1.41915 14.2486 0.418823 14.2486C0.418823 12.9148 0.418823 11.581 0.418823 10.2473Z" fill="white"/>
<path opacity="0.99" fill-rule="evenodd" clip-rule="evenodd" d="M38.4068 10.2472C44.3924 10.2472 50.3783 10.2472 56.3639 10.2472C56.3639 11.2556 56.3639 12.2641 56.3639 13.2726C50.3783 13.2726 44.3924 13.2726 38.4068 13.2726C38.4068 12.2641 38.4068 11.2556 38.4068 10.2472Z" fill="white"/>
<path opacity="0.992" fill-rule="evenodd" clip-rule="evenodd" d="M45.8726 14.9561C46.881 14.9561 47.8896 14.9561 48.898 14.9561C48.898 18.1685 48.898 21.3809 48.898 24.5933C47.8896 24.5933 46.881 24.5933 45.8726 24.5933C45.8726 21.3809 45.8726 18.1685 45.8726 14.9561Z" fill="white"/>
</g>
<defs>
<clipPath id="clip0_99_118">
<rect width="72.8448" height="25" fill="white"/>
</clipPath>
</defs>
</svg>
